<?xml version="1.0" encoding="utf-8"?>
<svg version="1.1" id="Layer_1" x="0px" y="0px" viewBox="26 26 380 96" style="" xmlns="http://www.w3.org/2000/svg">
  <style type="text/css">
	.st0{fill-rule:evenodd;clip-rule:evenodd;fill:#fff;}
</style>
  <g>
    <path class="st0" d="M346,95.37c0,1.22-0.43,2.25-1.29,3.11c-0.79,0.79-1.75,1.18-2.9,1.18c-1.22,0-2.22-0.39-3-1.18 c-0.79-0.86-1.18-1.89-1.18-3.11l0-7.64c-2.5,2.78-5.44,5.14-8.81,7.1c-5.65,3.22-11.83,4.82-18.55,4.82 c-6.79,0-12.98-1.61-18.55-4.82c-5.58-3.29-10.01-7.72-13.3-13.3c-3.22-5.58-4.83-11.72-4.83-18.44s1.61-12.87,4.83-18.45 c3.29-5.58,7.72-9.97,13.3-13.19c5.58-3.29,11.76-4.93,18.55-4.93c6.72,0,12.9,1.64,18.55,4.93c3.38,1.92,6.32,4.27,8.83,7.04 l0-7.68c0-1.22,0.43-2.25,1.29-3.11c0.79-0.79,1.75-1.18,2.9-1.18c1.22,0,2.22,0.39,3,1.18c0.79,0.86,1.18,1.89,1.18,3.11 L346,95.37z M337.65,69.96c0.48-2.23,0.73-4.55,0.73-6.98c0-1.91-0.15-3.75-0.46-5.54c-0.56-3.22-1.62-6.24-3.18-9.05 c-2.43-4.43-5.79-7.9-10.08-10.4c-4.29-2.5-9.04-3.75-14.26-3.75c-5.29,0-10.08,1.25-14.37,3.75c-4.29,2.5-7.65,5.94-10.08,10.3 c-2.43,4.36-3.65,9.26-3.65,14.69c0,5.43,1.21,10.37,3.65,14.8c2.43,4.43,5.79,7.9,10.08,10.4c4.29,2.5,9.08,3.75,14.37,3.75 c5.22,0,9.97-1.25,14.26-3.75c4.29-2.57,7.65-6.04,10.08-10.4C336.07,75.33,337.04,72.72,337.65,69.96z M403.87,92.04 c0.79,0.72,1.18,1.61,1.18,2.68c0,1-0.39,1.89-1.18,2.68c-0.72,0.72-1.61,1.07-2.68,1.07H352.5c-1.14,0-2.11-0.36-2.89-1.07 c-0.71-0.79-1.07-1.68-1.07-2.68c0-0.57,0.46-1.54,1.39-2.9l43-56.62h-36.25c-1.14,0-2.07-0.36-2.79-1.07 c-0.71-0.72-1.07-1.61-1.07-2.68c0-1.07,0.36-1.97,1.07-2.68c0.79-0.72,1.72-1.07,2.79-1.07h43.97c1.07,0,1.97,0.39,2.68,1.18 c0.79,0.72,1.18,1.57,1.18,2.57c0,0.79-0.43,1.72-1.29,2.79l-43.11,56.73h41.07C402.26,90.97,403.16,91.33,403.87,92.04z M233.99,61.27h16.19c4.43,0,7.9-1.15,10.4-3.43c2.57-2.36,3.86-5.54,3.86-9.54c0-4-1.29-7.19-3.86-9.54 c-2.57-2.36-6.04-3.54-10.4-3.54h-16.19V61.27z M279.03,95.9c0,1-0.39,1.86-1.18,2.57c-0.72,0.79-1.64,1.18-2.79,1.18 c-1.21,0-2.43-0.75-3.65-2.25l-21.34-28.63h-16.09v26.6c0,1.22-0.43,2.25-1.29,3.11c-0.79,0.79-1.75,1.18-2.9,1.18 c-1.22,0-2.22-0.39-3-1.18c-0.79-0.86-1.18-1.89-1.18-3.11V31.99c0-1.22,0.39-2.22,1.18-3c0.86-0.86,1.89-1.29,3.11-1.29h20.59 c4.43,0,8.36,0.86,11.8,2.57c3.43,1.71,6.08,4.15,7.93,7.29c1.93,3.07,2.9,6.61,2.9,10.62c0,4.72-1.25,8.76-3.75,12.12 c-2.5,3.36-5.93,5.76-10.29,7.19l18.55,25.2C278.56,93.83,279.03,94.9,279.03,95.9z M210.81,87.54c2.65-2.36,3.97-5.58,3.97-9.65 c0-4.08-1.32-7.26-3.97-9.54c-2.57-2.36-6.15-3.54-10.72-3.54h-19.95v26.17h19.95C204.66,90.97,208.23,89.83,210.81,87.54z M180.14,35.2v21.98h15.12c3.86,0,6.9-0.97,9.11-2.89c2.22-1.93,3.33-4.65,3.33-8.15c0-3.43-1.11-6.11-3.33-8.04 c-2.14-1.93-5.18-2.9-9.11-2.9H180.14z M219.71,66.31c2.43,3.22,3.65,7.15,3.65,11.8c0,4-0.93,7.58-2.79,10.72 c-1.86,3.07-4.5,5.47-7.94,7.19c-3.36,1.64-7.26,2.47-11.69,2.47h-24.77c-1.29,0-2.36-0.43-3.22-1.29 c-0.79-0.86-1.18-1.89-1.18-3.11V32.1c0-1.22,0.39-2.25,1.18-3.11c0.86-0.86,1.93-1.29,3.22-1.29h19.95 c6.08,0,10.94,1.64,14.58,4.93c3.72,3.29,5.58,7.61,5.58,12.98c0,2.93-0.61,5.58-1.82,7.94c-1.14,2.36-2.79,4.36-4.93,6.01 C213.88,60.84,217.28,63.09,219.71,66.31z M167.02,27.81c0.72,0.79,1.07,1.79,1.07,3v64.56c0,1.22-0.39,2.25-1.18,3.11 c-0.79,0.79-1.79,1.18-3,1.18c-1.14,0-2.15-0.39-3-1.18c-0.79-0.86-1.18-1.89-1.18-3.11V44.54L140.1,75.21c-1.29,2-2.79,3-4.5,3 c-0.93,0-1.75-0.21-2.47-0.64c-0.72-0.5-1.39-1.29-2.04-2.36l-19.62-30.67v50.83c0,1.22-0.43,2.25-1.29,3.11 c-0.79,0.79-1.75,1.18-2.9,1.18c-1.22,0-2.22-0.39-3-1.18c-0.79-0.86-1.18-1.89-1.18-3.11V30.81c0-1.21,0.36-2.22,1.07-3 c0.72-0.86,1.64-1.29,2.79-1.29c1,0,1.82,0.29,2.47,0.86c0.72,0.5,1.5,1.43,2.36,2.79l23.81,37l23.7-37 c0.93-1.36,1.72-2.29,2.36-2.79c0.72-0.57,1.57-0.86,2.57-0.86C165.38,26.52,166.3,26.95,167.02,27.81z M49.36,37.99 c-4.29,2.5-7.65,5.94-10.08,10.3c-2.43,4.36-3.65,9.26-3.65,14.69c0,5.43,1.21,10.37,3.65,14.8c2.43,4.43,5.79,7.9,10.08,10.4 c4.29,2.5,9.08,3.75,14.37,3.75c5.22,0,9.97-1.25,14.26-3.75c4.29-2.57,7.65-6.04,10.08-10.4c2.43-4.43,3.65-9.36,3.65-14.8 c0-5.36-1.22-10.22-3.65-14.58c-2.43-4.43-5.79-7.9-10.08-10.4c-4.29-2.5-9.04-3.75-14.26-3.75 C58.44,34.24,53.65,35.49,49.36,37.99z M82.18,31.45c5.65,3.22,10.08,7.62,13.3,13.19c3.29,5.58,4.93,11.73,4.93,18.45 s-1.64,12.87-4.93,18.44c-3.22,5.58-7.65,10.01-13.3,13.3c-5.65,3.22-11.83,4.82-18.55,4.82c-6.79,0-12.98-1.61-18.55-4.82 c-5.58-3.29-10.01-7.72-13.3-13.3c-3.22-5.58-4.83-11.72-4.83-18.44s1.61-12.87,4.83-18.45c3.29-5.58,7.72-9.97,13.3-13.19 c5.58-3.29,11.76-4.93,18.55-4.93C70.34,26.52,76.53,28.16,82.18,31.45z"/>
    <path class="st0" d="M48.78,121.15c-0.26,0.25-0.57,0.39-0.92,0.39c-0.59,0-1.03-0.33-1.31-0.89l-1.41-3.16h-9.1l-1.33,3.15 c-0.24,0.58-0.68,0.9-1.29,0.9c-0.37,0-0.7-0.13-0.96-0.39c-0.25-0.27-0.39-0.59-0.39-0.95c0-0.24,0.07-0.51,0.19-0.81 l7.07-16.55c0.26-0.58,0.69-0.92,1.29-0.92c0.6,0,1.03,0.34,1.29,0.92l7.07,16.54c0.14,0.28,0.22,0.56,0.22,0.82 C49.2,120.56,49.05,120.88,48.78,121.15z M44.06,114.97l-3.45-8.75l-3.55,8.75H44.06z"/>
    <path class="st0" d="M70.76,121.15c-0.24,0.26-0.56,0.39-0.92,0.39c-0.44,0-0.83-0.28-1.17-0.69l-5.48-7.35h-3.77v6.65 c0,0.39-0.14,0.73-0.42,1.01c-0.26,0.26-0.58,0.39-0.95,0.39c-0.38,0-0.72-0.13-0.98-0.39c-0.25-0.28-0.39-0.62-0.39-1v-16.51 c0-0.38,0.13-0.72,0.39-0.98c0.28-0.28,0.62-0.42,1.01-0.42h5.36c1.19,0,2.26,0.23,3.2,0.7c0.94,0.47,1.67,1.14,2.18,2.01 c0.53,0.85,0.79,1.82,0.79,2.91c0,1.28-0.34,2.39-1.03,3.32c-0.62,0.83-1.44,1.44-2.46,1.84l4.61,6.26 c0.26,0.32,0.42,0.66,0.42,1.01C71.15,120.62,71.02,120.91,70.76,121.15z M63.36,110.97c1.11,0,1.94-0.29,2.52-0.82 c0.6-0.55,0.92-1.3,0.92-2.28c0-0.98-0.31-1.73-0.92-2.28c-0.61-0.56-1.44-0.85-2.52-0.85h-3.94v6.23H63.36z"/>
    <path class="st0" d="M96.07,103.32v16.82c0,0.38-0.13,0.73-0.39,1c-0.26,0.26-0.6,0.39-0.98,0.39c-0.37,0-0.71-0.14-0.98-0.39 c-0.25-0.28-0.39-0.62-0.39-1.01v-12.29l-4.6,7.19c-0.36,0.57-0.83,0.91-1.41,0.91c-0.29,0-0.56-0.07-0.79-0.21 c-0.23-0.16-0.44-0.41-0.62-0.71l-4.59-7.18v12.29c0,0.39-0.14,0.73-0.42,1.01c-0.26,0.26-0.58,0.39-0.95,0.39 c-0.38,0-0.72-0.13-0.98-0.39c-0.25-0.28-0.39-0.62-0.39-1v-16.82c0-0.38,0.11-0.71,0.35-0.97c0.24-0.28,0.56-0.43,0.93-0.43 c0.31,0,0.59,0.09,0.82,0.28c0.23,0.16,0.45,0.44,0.68,0.8l5.97,9.27l5.94-9.28c0.25-0.36,0.47-0.63,0.68-0.79 c0.24-0.19,0.53-0.28,0.84-0.28c0.38,0,0.7,0.15,0.94,0.44C95.96,102.62,96.07,102.95,96.07,103.32z"/>
    <path class="st0" d="M105.12,119.8v-16.46c0-0.38,0.13-0.72,0.38-1c0.26-0.28,0.6-0.43,0.99-0.43c0.38,0,0.7,0.15,0.96,0.43 c0.27,0.27,0.41,0.61,0.41,1v15.37h7.57c0.36,0,0.68,0.12,0.92,0.36c0.24,0.24,0.36,0.55,0.36,0.9c0,0.33-0.13,0.64-0.36,0.89 c-0.25,0.25-0.57,0.37-0.93,0.37h-8.89c-0.4,0-0.76-0.14-1.04-0.42C105.25,120.53,105.12,120.19,105.12,119.8z"/>
    <path class="st0" d="M123.78,119.94v-16.43c0-0.35,0.12-0.65,0.36-0.9c0.24-0.26,0.56-0.39,0.92-0.39h9.92 c0.35,0,0.66,0.13,0.9,0.39c0.25,0.23,0.39,0.53,0.39,0.87c0,0.36-0.13,0.67-0.4,0.91c-0.24,0.24-0.54,0.35-0.89,0.35h-8.47v5.09 h6.23c0.35,0,0.65,0.12,0.89,0.36c0.26,0.24,0.39,0.55,0.39,0.9c0,0.34-0.14,0.65-0.39,0.9c-0.24,0.24-0.55,0.36-0.9,0.36h-6.23 v6.37h8.8c0.35,0,0.65,0.12,0.89,0.36c0.26,0.24,0.39,0.55,0.39,0.9c0,0.34-0.14,0.65-0.39,0.9c-0.24,0.24-0.55,0.36-0.9,0.36 h-10.25c-0.36,0-0.68-0.12-0.93-0.37C123.9,120.61,123.78,120.29,123.78,119.94z"/>
    <path class="st0" d="M143.33,118.27c-0.2-0.25-0.31-0.53-0.31-0.84c0-0.36,0.14-0.67,0.4-0.91c0.25-0.25,0.56-0.38,0.91-0.38 c0.43,0,0.78,0.18,1.06,0.52c1.22,1.55,2.67,2.3,4.36,2.3c1.07,0,1.9-0.27,2.5-0.77c0.62-0.52,0.93-1.19,0.93-2.02 c0-0.63-0.19-1.12-0.57-1.51c-0.39-0.42-1.16-0.92-2.35-1.47l-2.07-0.98c-1.49-0.7-2.59-1.45-3.28-2.28 c-0.69-0.83-1.04-1.81-1.04-2.92c0-0.97,0.26-1.84,0.77-2.61c0.51-0.77,1.21-1.37,2.09-1.8c0.9-0.45,1.89-0.67,2.97-0.67 c2.14,0,3.91,0.77,5.29,2.3c0.3,0.32,0.46,0.68,0.46,1.08c0,0.34-0.16,0.63-0.43,0.88c-0.25,0.25-0.55,0.38-0.89,0.38 c-0.36,0-0.68-0.17-0.96-0.45c-0.97-1.08-2.14-1.62-3.51-1.62c-0.94,0-1.66,0.24-2.2,0.69c-0.53,0.43-0.79,0.99-0.79,1.71 c0,0.41,0.08,0.75,0.22,1.01c0.14,0.27,0.4,0.54,0.78,0.83c0.41,0.29,1.01,0.62,1.8,1.01l2.04,0.98c1.56,0.75,2.7,1.55,3.39,2.39 c0.71,0.84,1.07,1.84,1.07,3c0,1.04-0.27,1.98-0.8,2.81c-0.53,0.83-1.28,1.48-2.24,1.94c-0.94,0.45-2.01,0.67-3.2,0.67 c-1.24,0-2.44-0.29-3.59-0.87C145.04,120.07,144.08,119.27,143.33,118.27z"/>
    <path class="st0" d="M163.44,118.27c-0.2-0.25-0.31-0.53-0.31-0.84c0-0.36,0.14-0.67,0.4-0.91c0.25-0.25,0.56-0.38,0.91-0.38 c0.43,0,0.78,0.18,1.06,0.52c1.22,1.55,2.67,2.3,4.36,2.3c1.07,0,1.9-0.27,2.5-0.77c0.62-0.52,0.93-1.19,0.93-2.02 c0-0.63-0.19-1.12-0.57-1.51c-0.39-0.42-1.16-0.92-2.35-1.47l-2.07-0.98c-1.49-0.7-2.59-1.45-3.28-2.28 c-0.69-0.83-1.04-1.81-1.04-2.92c0-0.97,0.26-1.84,0.77-2.61c0.51-0.77,1.21-1.37,2.09-1.8c0.9-0.45,1.89-0.67,2.97-0.67 c2.14,0,3.91,0.77,5.29,2.3c0.3,0.32,0.46,0.68,0.46,1.08c0,0.34-0.16,0.63-0.43,0.88c-0.25,0.25-0.55,0.38-0.89,0.38 c-0.36,0-0.68-0.17-0.96-0.45c-0.97-1.08-2.14-1.62-3.51-1.62c-0.94,0-1.66,0.24-2.2,0.69c-0.53,0.43-0.79,0.99-0.79,1.71 c0,0.41,0.08,0.75,0.22,1.01c0.14,0.27,0.4,0.54,0.78,0.83c0.41,0.29,1.01,0.62,1.8,1.01l2.04,0.98c1.56,0.75,2.7,1.55,3.39,2.39 c0.71,0.84,1.07,1.84,1.07,3c0,1.04-0.27,1.98-0.8,2.81c-0.53,0.83-1.28,1.48-2.24,1.94c-0.94,0.45-2.01,0.67-3.2,0.67 c-1.24,0-2.44-0.29-3.59-0.87C165.15,120.07,164.19,119.27,163.44,118.27z"/>
    <path class="st0" d="M191.12,118.27c-0.2-0.25-0.31-0.53-0.31-0.84c0-0.36,0.14-0.67,0.4-0.91c0.25-0.25,0.56-0.38,0.91-0.38 c0.43,0,0.78,0.18,1.06,0.52c1.22,1.55,2.67,2.3,4.36,2.3c1.07,0,1.9-0.27,2.5-0.77c0.62-0.52,0.93-1.19,0.93-2.02 c0-0.63-0.19-1.12-0.57-1.51c-0.39-0.42-1.16-0.92-2.35-1.47l-2.07-0.98c-1.49-0.7-2.59-1.45-3.28-2.28 c-0.69-0.83-1.04-1.81-1.04-2.92c0-0.97,0.26-1.84,0.77-2.61c0.51-0.77,1.21-1.37,2.09-1.8c0.9-0.45,1.89-0.67,2.97-0.67 c2.14,0,3.91,0.77,5.29,2.3c0.3,0.32,0.46,0.68,0.46,1.08c0,0.34-0.16,0.63-0.43,0.88c-0.25,0.25-0.55,0.38-0.89,0.38 c-0.36,0-0.68-0.17-0.96-0.45c-0.97-1.08-2.14-1.62-3.51-1.62c-0.94,0-1.66,0.24-2.2,0.69c-0.53,0.43-0.79,0.99-0.79,1.71 c0,0.41,0.08,0.75,0.22,1.01c0.14,0.27,0.39,0.54,0.78,0.83c0.41,0.29,1.01,0.62,1.8,1.01l2.04,0.98 c1.56,0.75,2.7,1.55,3.39,2.39c0.71,0.84,1.07,1.84,1.07,3c0,1.04-0.27,1.98-0.8,2.81c-0.53,0.83-1.28,1.48-2.24,1.94 c-0.94,0.45-2.01,0.67-3.2,0.67c-1.24,0-2.44-0.29-3.59-0.87C192.83,120.07,191.88,119.27,191.12,118.27z"/>
    <path class="st0" d="M212.69,117.81c-0.62-1.2-0.93-2.6-0.93-4.18v-10.28c0-0.38,0.13-0.73,0.38-1c0.27-0.27,0.61-0.42,0.98-0.42 c0.39,0,0.73,0.14,0.99,0.43c0.25,0.28,0.38,0.62,0.38,1v10.42c0,1.64,0.44,2.91,1.3,3.83c0.87,0.9,2.06,1.36,3.59,1.36 c1.52,0,2.69-0.46,3.54-1.36c0.85-0.92,1.29-2.19,1.29-3.83v-10.42c0-0.38,0.13-0.73,0.38-1c0.27-0.27,0.61-0.42,0.98-0.42 c0.39,0,0.73,0.14,0.99,0.43c0.25,0.28,0.38,0.62,0.38,1v10.28c0,1.57-0.32,2.95-0.95,4.15c-0.62,1.2-1.51,2.13-2.65,2.79 c-1.15,0.64-2.47,0.96-3.97,0.96c-1.53,0-2.88-0.32-4.05-0.96C214.2,119.92,213.31,118.99,212.69,117.81z"/>
    <path class="st0" d="M251.05,103.35v16.85c0,0.36-0.14,0.68-0.39,0.95c-0.26,0.26-0.59,0.39-0.96,0.39 c-0.47,0-0.86-0.25-1.17-0.67l-10-13.41v12.65c0,0.39-0.14,0.73-0.42,1.01c-0.26,0.27-0.58,0.42-0.95,0.42 c-0.39,0-0.73-0.14-0.99-0.43c-0.25-0.28-0.38-0.62-0.38-1v-16.85c0-0.36,0.13-0.67,0.39-0.92c0.27-0.27,0.6-0.42,0.98-0.42 c0.24,0,0.47,0.07,0.66,0.22c0.21,0.14,0.4,0.35,0.6,0.62l9.91,13.24l-0.03-12.65c0-0.38,0.13-0.73,0.38-1 c0.27-0.27,0.61-0.42,0.98-0.42c0.39,0,0.73,0.14,0.99,0.43C250.92,102.63,251.05,102.96,251.05,103.35z"/>
    <path class="st0" d="M260.19,116.7c-0.86-1.5-1.3-3.16-1.3-4.97c0-1.82,0.43-3.48,1.3-4.97c0.88-1.49,2.07-2.68,3.57-3.54 c1.52-0.86,3.18-1.29,5-1.29c1.48,0,2.89,0.32,4.25,0.95c1.36,0.63,2.44,1.49,3.24,2.57c0.24,0.32,0.39,0.65,0.39,0.98 c0,0.34-0.14,0.65-0.39,0.9c-0.26,0.23-0.57,0.36-0.92,0.36c-0.23,0-0.45-0.05-0.65-0.14c-0.2-0.1-0.39-0.28-0.57-0.49 c-0.82-0.91-1.64-1.55-2.48-1.94c-0.83-0.41-1.79-0.62-2.87-0.62c-1.33,0-2.53,0.31-3.6,0.94c-1.07,0.63-1.91,1.48-2.52,2.58 c-0.61,1.09-0.91,2.32-0.91,3.69c0,1.39,0.31,2.64,0.92,3.75c0.63,1.11,1.49,1.99,2.58,2.63c1.09,0.62,2.31,0.94,3.66,0.94 c1.24,0,2.38-0.26,3.42-0.78c1.01-0.52,1.83-1.24,2.44-2.15v-2.29h-4.97c-0.38,0-0.72-0.12-0.99-0.35 c-0.27-0.25-0.43-0.56-0.43-0.91c0-0.37,0.15-0.68,0.44-0.91c0.28-0.23,0.61-0.34,0.99-0.34h6.29c0.39,0,0.73,0.14,1.01,0.42 c0.28,0.26,0.42,0.61,0.42,1.01v2.99c0,0.6-0.17,1.15-0.49,1.66c-0.88,1.29-2.07,2.31-3.54,3.06c-1.46,0.75-3.02,1.12-4.68,1.12 c-1.82,0-3.49-0.43-5-1.29C262.26,119.38,261.07,118.2,260.19,116.7z"/>
    <path class="st0" d="M285.46,119.8v-16.46c0-0.38,0.13-0.72,0.38-1c0.26-0.28,0.6-0.43,0.99-0.43c0.38,0,0.7,0.15,0.96,0.43 c0.27,0.27,0.41,0.61,0.41,1v15.37h7.57c0.36,0,0.68,0.12,0.92,0.36c0.24,0.24,0.36,0.55,0.36,0.9c0,0.33-0.13,0.64-0.36,0.89 c-0.25,0.25-0.57,0.37-0.93,0.37h-8.89c-0.4,0-0.76-0.14-1.04-0.42C285.59,120.53,285.46,120.19,285.46,119.8z"/>
    <path class="st0" d="M320.13,121.15c-0.26,0.25-0.57,0.39-0.92,0.39c-0.59,0-1.03-0.33-1.31-0.89l-1.41-3.16h-9.1l-1.33,3.15 c-0.24,0.58-0.68,0.9-1.29,0.9c-0.37,0-0.7-0.13-0.96-0.39c-0.25-0.27-0.39-0.59-0.39-0.95c0-0.24,0.07-0.51,0.19-0.81 l7.07-16.55c0.26-0.58,0.69-0.92,1.29-0.92c0.6,0,1.03,0.34,1.29,0.92l7.07,16.54c0.14,0.28,0.22,0.56,0.22,0.82 C320.55,120.56,320.4,120.88,320.13,121.15z M315.41,114.97l-3.45-8.75l-3.55,8.75H315.41z"/>
    <path class="st0" d="M326.69,118.27c-0.2-0.25-0.31-0.53-0.31-0.84c0-0.36,0.14-0.67,0.4-0.91c0.25-0.25,0.56-0.38,0.91-0.38 c0.43,0,0.78,0.18,1.06,0.52c1.22,1.55,2.67,2.3,4.36,2.3c1.07,0,1.9-0.27,2.5-0.77c0.62-0.52,0.93-1.19,0.93-2.02 c0-0.63-0.19-1.12-0.57-1.51c-0.39-0.42-1.16-0.92-2.35-1.47l-2.07-0.98c-1.49-0.7-2.59-1.45-3.28-2.28 c-0.69-0.83-1.04-1.81-1.04-2.92c0-0.97,0.26-1.84,0.77-2.61c0.51-0.77,1.21-1.37,2.09-1.8c0.9-0.45,1.89-0.67,2.97-0.67 c2.14,0,3.91,0.77,5.29,2.3c0.3,0.32,0.46,0.68,0.46,1.08c0,0.34-0.16,0.63-0.43,0.88c-0.25,0.25-0.55,0.38-0.89,0.38 c-0.36,0-0.68-0.17-0.96-0.45c-0.97-1.08-2.14-1.62-3.51-1.62c-0.94,0-1.66,0.24-2.2,0.69c-0.53,0.43-0.79,0.99-0.79,1.71 c0,0.41,0.08,0.75,0.22,1.01c0.14,0.27,0.4,0.54,0.78,0.83c0.41,0.29,1.01,0.62,1.8,1.01l2.04,0.98c1.56,0.75,2.7,1.55,3.39,2.39 c0.71,0.84,1.07,1.84,1.07,3c0,1.04-0.27,1.98-0.8,2.81c-0.53,0.83-1.28,1.48-2.24,1.94c-0.94,0.45-2.01,0.67-3.2,0.67 c-1.24,0-2.44-0.29-3.59-0.87C328.4,120.07,327.44,119.27,326.69,118.27z"/>
    <path class="st0" d="M346.8,118.27c-0.2-0.25-0.31-0.53-0.31-0.84c0-0.36,0.14-0.67,0.4-0.91c0.25-0.25,0.56-0.38,0.91-0.38 c0.43,0,0.78,0.18,1.06,0.52c1.22,1.55,2.67,2.3,4.36,2.3c1.07,0,1.9-0.27,2.5-0.77c0.62-0.52,0.93-1.19,0.93-2.02 c0-0.63-0.19-1.12-0.57-1.51c-0.39-0.42-1.16-0.92-2.35-1.47l-2.07-0.98c-1.49-0.7-2.59-1.45-3.28-2.28 c-0.69-0.83-1.04-1.81-1.04-2.92c0-0.97,0.26-1.84,0.77-2.61c0.51-0.77,1.21-1.37,2.09-1.8c0.9-0.45,1.89-0.67,2.97-0.67 c2.14,0,3.91,0.77,5.29,2.3c0.3,0.32,0.46,0.68,0.46,1.08c0,0.34-0.16,0.63-0.43,0.88c-0.25,0.25-0.55,0.38-0.89,0.38 c-0.36,0-0.68-0.17-0.96-0.45c-0.97-1.08-2.14-1.62-3.51-1.62c-0.94,0-1.66,0.24-2.2,0.69c-0.53,0.43-0.79,0.99-0.79,1.71 c0,0.41,0.08,0.75,0.22,1.01c0.14,0.27,0.4,0.54,0.78,0.83c0.41,0.29,1.01,0.62,1.8,1.01l2.04,0.98c1.56,0.75,2.7,1.55,3.39,2.39 c0.71,0.84,1.07,1.84,1.07,3c0,1.04-0.27,1.98-0.8,2.81c-0.53,0.83-1.28,1.48-2.24,1.94c-0.94,0.45-2.01,0.67-3.2,0.67 c-1.24,0-2.44-0.29-3.59-0.87C348.51,120.07,347.55,119.27,346.8,118.27z"/>
    <path class="st0" d="M367.69,119.94v-16.43c0-0.35,0.12-0.65,0.36-0.9c0.24-0.26,0.56-0.39,0.92-0.39h9.92 c0.35,0,0.66,0.13,0.9,0.39c0.25,0.23,0.39,0.53,0.39,0.87c0,0.36-0.13,0.67-0.4,0.91c-0.24,0.24-0.54,0.35-0.89,0.35h-8.47v5.09 h6.23c0.35,0,0.65,0.12,0.89,0.36c0.26,0.24,0.39,0.55,0.39,0.9c0,0.34-0.14,0.65-0.39,0.9c-0.24,0.24-0.55,0.36-0.9,0.36h-6.23 v6.37h8.8c0.35,0,0.65,0.12,0.89,0.36c0.26,0.24,0.39,0.55,0.39,0.9c0,0.34-0.14,0.65-0.39,0.9c-0.24,0.24-0.55,0.36-0.9,0.36 h-10.25c-0.36,0-0.68-0.12-0.93-0.37C367.82,120.61,367.69,120.29,367.69,119.94z"/>
    <path class="st0" d="M387.25,118.27c-0.2-0.25-0.31-0.53-0.31-0.84c0-0.36,0.14-0.67,0.4-0.91c0.25-0.25,0.56-0.38,0.91-0.38 c0.43,0,0.78,0.18,1.06,0.52c1.22,1.55,2.67,2.3,4.36,2.3c1.07,0,1.9-0.27,2.5-0.77c0.62-0.52,0.93-1.19,0.93-2.02 c0-0.63-0.19-1.12-0.57-1.51c-0.39-0.42-1.16-0.92-2.35-1.47l-2.07-0.98c-1.49-0.7-2.59-1.45-3.28-2.28 c-0.69-0.83-1.04-1.81-1.04-2.92c0-0.97,0.26-1.84,0.77-2.61c0.51-0.77,1.21-1.37,2.09-1.8c0.9-0.45,1.89-0.67,2.97-0.67 c2.14,0,3.91,0.77,5.29,2.3c0.3,0.32,0.46,0.68,0.46,1.08c0,0.34-0.16,0.63-0.43,0.88c-0.25,0.25-0.55,0.38-0.89,0.38 c-0.36,0-0.68-0.17-0.96-0.45c-0.97-1.08-2.14-1.62-3.51-1.62c-0.94,0-1.66,0.24-2.2,0.69c-0.53,0.43-0.79,0.99-0.79,1.71 c0,0.41,0.08,0.75,0.22,1.01c0.14,0.27,0.39,0.54,0.78,0.83c0.41,0.29,1.01,0.62,1.8,1.01l2.04,0.98 c1.56,0.75,2.7,1.55,3.39,2.39c0.71,0.84,1.07,1.84,1.07,3c0,1.04-0.27,1.98-0.8,2.81c-0.53,0.83-1.28,1.48-2.24,1.94 c-0.94,0.45-2.01,0.67-3.2,0.67c-1.24,0-2.44-0.29-3.59-0.87C388.96,120.07,388,119.27,387.25,118.27z"/>
    <circle class="st0" cx="183.5" cy="111.73" r="1.5"/>
  </g>
</svg>